<svg width="47" height="69" viewBox="0 0 47 69" fill="none" xmlns="http://www.w3.org/2000/svg">
<g clip-path="url(#clip0_4157_26893)">
<path d="M33.1159 38.1149C32.9932 39.116 32.55 40.0484 31.8546 40.7683C31.391 41.3151 30.8136 41.7505 30.1643 42.043C29.4917 42.371 28.753 42.5348 28.0071 42.5212C27.414 42.522 26.8252 42.4194 26.2662 42.2177L26.2409 42.2085C25.5247 41.9576 24.8773 41.5378 24.3515 40.9835C24.2415 40.862 24.1057 40.7676 23.9544 40.7075C23.8031 40.6474 23.6403 40.6232 23.4784 40.6367V48.7431H3.14994C2.74923 48.7429 2.36497 48.5812 2.08137 48.2934C1.79777 48.0057 1.63798 47.6154 1.63702 47.2081V23.7728C1.63685 23.3788 1.78627 22.9999 2.05416 22.7152C2.22608 22.6232 6.75939 17.7128 11.6076 12.4796C16.9399 6.72772 22.6504 0.592297 23.4005 0.0404675C23.4217 0.0210594 23.4471 0.0071707 23.4747 0V18.6684C23.3951 18.638 23.3191 18.604 23.2476 18.5691C23.1761 18.5341 23.13 18.5084 23.0748 18.4771C23.0196 18.4458 22.9662 18.4109 22.9146 18.3769L22.8486 18.3309C22.8079 18.3014 22.769 18.272 22.73 18.2389C22.6332 18.1626 22.5418 18.0825 22.4586 17.9998C22.4251 17.9676 22.3916 17.9354 22.36 17.9023H22.3554L22.3048 17.8508L22.2541 17.7983C22.1727 17.7128 22.0921 17.6254 22.0125 17.5371L21.9591 17.4792L21.8641 17.3753C21.7799 17.2833 21.694 17.1913 21.6044 17.0994C21.5519 17.0479 21.4976 16.9954 21.4424 16.9449C21.3673 16.8759 21.2886 16.8078 21.2045 16.7425C21.1719 16.7168 21.1384 16.691 21.104 16.6671C21.0524 16.6276 20.9982 16.5898 20.9421 16.554C20.904 16.5288 20.8651 16.5049 20.8253 16.4822C20.4478 16.2616 20.0358 16.1083 19.6074 16.0288C19.5368 16.0141 19.4635 16.0012 19.3893 15.9893C19.3151 15.9773 19.2364 15.9672 19.1568 15.958C19.1043 15.9516 19.0518 15.946 18.9975 15.9414C17.843 15.8257 16.689 16.1666 15.7753 16.8933L15.6758 16.9715C15.6043 17.0304 15.5347 17.0902 15.4668 17.1555C15.3989 17.2208 15.3573 17.2585 15.3039 17.3109C14.929 17.6861 14.617 18.121 14.3801 18.5985C14.3466 18.6666 14.314 18.7346 14.2832 18.8036C14.2534 18.8735 14.2244 18.9434 14.1973 19.0142C14.1701 19.085 14.1448 19.1568 14.1213 19.2285C13.9677 19.6989 13.8942 20.1925 13.9041 20.6881C13.8961 21.1829 13.9695 21.6756 14.1213 22.1458C14.1448 22.2185 14.1701 22.2902 14.1964 22.362C14.318 22.6849 14.4739 22.9933 14.6615 23.2817C14.7031 23.3452 14.7456 23.4068 14.7891 23.4656C14.9444 23.6808 15.1166 23.8829 15.3039 24.0699C15.3835 24.1499 15.4668 24.2272 15.5518 24.3007C15.6659 24.4001 15.7844 24.493 15.9065 24.5767C15.997 24.6429 16.092 24.7054 16.188 24.7606C16.2404 24.7937 16.2938 24.8244 16.3481 24.8526C16.5235 24.9519 16.7048 25.0401 16.891 25.1165C16.9607 25.1441 17.0313 25.1708 17.1019 25.1956C17.7522 25.4251 18.4461 25.4975 19.1287 25.4072C19.2192 25.397 19.3097 25.3851 19.4002 25.3704C19.4608 25.3603 19.5205 25.3501 19.5812 25.3382C19.7124 25.3124 19.8372 25.2812 19.9549 25.2462C20.0218 25.226 20.087 25.2057 20.1494 25.1837C20.2498 25.1487 20.3449 25.111 20.4362 25.0705C20.496 25.0448 20.5539 25.0172 20.6091 24.9887C20.6652 24.9611 20.7195 24.9317 20.7719 24.9013C20.9509 24.8028 21.1219 24.69 21.2832 24.5638L21.3492 24.5114C21.3845 24.4819 21.4189 24.4534 21.4524 24.424L21.5564 24.332C21.6668 24.2299 21.7709 24.1278 21.8695 24.0276C21.9935 23.9007 22.1093 23.7765 22.2224 23.6597C22.2387 23.6431 22.2541 23.6266 22.2704 23.611C22.3346 23.5457 22.3989 23.4831 22.4622 23.427C22.4939 23.3976 22.5255 23.3691 22.5581 23.3415C22.6506 23.2613 22.7496 23.1894 22.854 23.1263C22.8956 23.1024 22.9382 23.0803 22.9816 23.0591C23.0254 23.0385 23.0704 23.0207 23.1164 23.0058C23.2334 22.9671 23.3553 22.9457 23.4784 22.9423V33.8869C23.7981 33.8338 24.1023 33.7097 24.3696 33.5237C24.9732 33.1291 25.5061 32.5294 26.4617 32.2131C28.2397 31.6962 30.2575 32.2811 31.6121 33.5844C32.4644 34.3888 33.0053 35.4769 33.1368 36.6516C33.2037 37.1376 33.1967 37.6311 33.1159 38.1149Z" fill="#D68F02"/>
<path d="M45.363 23.7748V47.2082C45.3621 47.6155 45.2022 48.0057 44.9185 48.2935C44.6348 48.5812 44.2504 48.7429 43.8495 48.7431H23.3978V40.6392C23.5597 40.6257 23.7226 40.6499 23.874 40.71C24.0254 40.77 24.1613 40.8644 24.2713 40.9859C24.797 41.5412 25.4447 41.9619 26.1614 42.2136L26.1868 42.2228C26.7459 42.4245 27.335 42.5271 27.9284 42.5263C28.6746 42.5398 29.4136 42.3761 30.0865 42.0481C30.7361 41.7557 31.3136 41.3203 31.7774 40.7735C32.4731 40.0537 32.9165 39.1214 33.0393 38.1203C33.121 37.6367 33.1289 37.1432 33.0628 36.6571C32.9311 35.4794 32.3876 34.3887 31.5312 33.5837C30.1734 32.2806 28.1574 31.6957 26.3787 32.2125C25.4228 32.5289 24.8896 33.1321 24.2858 33.523C24.0184 33.709 23.714 33.8331 23.3941 33.8862V22.9425C23.271 22.9446 23.1488 22.966 23.0321 23.0059C22.986 23.0208 22.941 23.0386 22.8972 23.0593C22.8537 23.0804 22.8112 23.1025 22.7695 23.1264C22.6651 23.1895 22.566 23.2615 22.4735 23.3416C22.4419 23.3683 22.4093 23.3968 22.3776 23.4271C22.3142 23.486 22.2499 23.5485 22.1857 23.6111C22.1694 23.6267 22.154 23.6432 22.1377 23.6598C22.0245 23.7766 21.9087 23.9007 21.7847 24.0277C21.686 24.1279 21.5819 24.23 21.4715 24.3321L21.3674 24.424C21.3339 24.4534 21.2995 24.482 21.2642 24.5114L21.1981 24.5638C21.0378 24.6924 20.8677 24.8077 20.6893 24.9087C20.6368 24.9381 20.5825 24.9675 20.5264 24.996C20.4703 25.0245 20.4123 25.0512 20.3535 25.0779C20.263 25.1184 20.167 25.1561 20.0665 25.191C20.0041 25.2131 19.9389 25.2333 19.8719 25.2535C19.7542 25.2885 19.6293 25.3198 19.4981 25.3455C19.4401 25.3575 19.3804 25.3676 19.317 25.3777C19.2265 25.3924 19.136 25.4044 19.0455 25.4145C18.3626 25.5048 17.6683 25.4324 17.0178 25.203C16.9471 25.1781 16.8765 25.1515 16.8068 25.1239C16.6206 25.0475 16.4392 24.9593 16.2637 24.8599C16.2094 24.8305 16.156 24.7998 16.1035 24.768C16.0075 24.7091 15.9134 24.6466 15.822 24.584C15.6997 24.4921 15.5812 24.4001 15.4671 24.3081C15.382 24.2346 15.2987 24.1573 15.2191 24.0773C15.0317 23.8903 14.8594 23.6882 14.704 23.4731C14.6605 23.4115 14.618 23.3499 14.5764 23.2892C14.3887 23.0008 14.2327 22.6924 14.1111 22.3695C14.0848 22.2978 14.0595 22.2261 14.0359 22.1534C13.8841 21.6832 13.8107 21.1906 13.8187 20.6958C13.8088 20.2003 13.8823 19.7067 14.0359 19.2363C14.0595 19.1646 14.0848 19.0928 14.112 19.022C14.1391 18.9512 14.1681 18.8813 14.198 18.8114C14.2288 18.7425 14.2613 18.6744 14.2948 18.6063C14.5318 18.1289 14.844 17.694 15.2191 17.3188C15.2725 17.2664 15.3268 17.214 15.382 17.1634C15.4372 17.1128 15.5196 17.0411 15.5911 16.9795L15.6907 16.9013C16.6047 16.1746 17.7592 15.8337 18.9142 15.9495C18.9685 15.9541 19.021 15.9596 19.0735 15.966C19.1532 15.9752 19.2301 15.9854 19.3062 15.9973C19.3822 16.0093 19.4537 16.0221 19.5243 16.0369C19.9529 16.1163 20.365 16.2696 20.7427 16.4902C20.7826 16.5135 20.8215 16.5375 20.8595 16.562C20.9156 16.5978 20.97 16.6355 21.0216 16.6751C21.056 16.699 21.0894 16.7248 21.122 16.7505C21.2062 16.8158 21.285 16.8839 21.3601 16.9528C21.4153 17.0034 21.4696 17.0558 21.5221 17.1073C21.6127 17.1993 21.6978 17.2913 21.7819 17.3832L21.877 17.4871L21.9304 17.5451C22.0101 17.637 22.0906 17.7207 22.1721 17.8063L22.2228 17.8587L22.2735 17.9102H22.278C22.3097 17.9433 22.3432 17.9755 22.3767 18.0077C22.4672 18.0904 22.5577 18.1704 22.6482 18.2468C22.6872 18.278 22.727 18.3075 22.7668 18.3387L22.8329 18.3847C22.8845 18.4197 22.9379 18.4537 22.9931 18.485C23.0484 18.5162 23.1063 18.5475 23.166 18.5769C23.2258 18.6063 23.3136 18.6459 23.3932 18.6762V0.00192412C23.4113 -0.00543304 23.4476 0.00836164 23.501 0.0423885C25.2218 1.12113 44.5284 22.5516 44.9511 22.7172C45.2131 23.0054 45.36 23.3824 45.363 23.7748Z" fill="#000130"/>
<path d="M5.07261 66.7932V69.0004H0.700012V66.7895H1.62843V55.6632H0.700012V54.2858L1.62843 53.4912H4.14328V66.7932H5.07261Z" fill="#000130"/>
<path d="M14.7548 54.9065V67.5694L13.0731 69.0004H8.31417L6.63428 67.5694V54.9065L8.31417 53.4912H13.0722L14.7548 54.9065ZM11.8116 55.5661H9.5766L9.12085 55.9731V66.4639L9.5766 66.8709H11.8116L12.2673 66.4639V55.9731L11.8116 55.5661Z" fill="#000130"/>
<path d="M23.1877 58.9358V69H21.4362L21.0081 68.3919L20.2485 69H17.8738L16.3165 67.7077V63.3997L17.8738 62.1074H20.1509L20.8939 62.6774V59.7332L20.5038 59.4106H19.0022L18.6131 59.7332V61.2737H16.3165V58.9358L17.9537 57.6055H21.5551L23.1877 58.9358ZM20.5401 67.1604L20.8911 66.8758V64.121L20.5401 63.8174H18.9613L18.6112 64.121V66.8758L18.9827 67.1604H20.5401Z" fill="#000130"/>
<path d="M31.9329 58.5974V69.0001H29.6243V59.4724L29.2754 59.181H27.7237L27.3749 59.4724V69.0001H25.0616V57.3086H26.8271L27.2342 57.9312L28.0096 57.2891H30.3765L31.9329 58.5974Z" fill="#000130"/>
<path d="M37.0529 67.1095H38.1795V68.9998H36.0196L34.496 67.6855V59.2982H33.1822V57.4106H34.4978V55.0732H36.7141V57.4106H38.1795V59.3047H36.7141V66.8201L37.0529 67.1095Z" fill="#000130"/>
<path d="M46.3 58.9353V61.2907H44.0028V59.7325L43.6137 59.41H42.1151L41.726 59.7325V61.1376L46.3 63.9677V67.7081L44.7215 69H41.0073L39.4288 67.7081V65.0874H41.726V66.8539L42.0761 67.1383H43.6546L44.0046 66.8539V65.1634L39.4306 62.3343V58.9353L41.0658 57.6055H44.6667L46.3 58.9353Z" fill="#000130"/>
</g>
<defs>
<clipPath id="clip0_4157_26893">
<rect width="45.6" height="69" fill="white" transform="translate(0.700012)"/>
</clipPath>
</defs>
</svg>

