<svg width="53" height="80" viewBox="0 0 53 80" fill="none" xmlns="http://www.w3.org/2000/svg">
<g clip-path="url(#clip0_9974_24848)">
<path d="M37.5832 44.1912C37.441 45.3519 36.9271 46.4329 36.1208 47.2676C35.5833 47.9016 34.9139 48.4064 34.1611 48.7455C33.3812 49.1258 32.5248 49.3157 31.66 49.3C30.9723 49.3009 30.2896 49.1819 29.6415 48.9481L29.6121 48.9374C28.7818 48.6465 28.0312 48.1597 27.4216 47.5171C27.2941 47.3762 27.1366 47.2668 26.9611 47.1971C26.7857 47.1274 26.5969 47.0994 26.4092 47.1151V56.5138H2.84004C2.37545 56.5135 1.92993 56.326 1.60112 55.9924C1.27231 55.6588 1.08705 55.2063 1.08594 54.7341V27.5627C1.08573 27.1059 1.25898 26.6666 1.56957 26.3364C1.7689 26.2298 7.02492 20.5366 12.646 14.4691C18.8284 7.80026 25.4493 0.686722 26.319 0.0469189C26.3435 0.0244167 26.373 0.00831386 26.405 0V21.6445C26.3127 21.6093 26.2246 21.5699 26.1417 21.5294C26.0588 21.4888 26.0053 21.459 25.9413 21.4227C25.8773 21.3865 25.8154 21.346 25.7556 21.3065L25.679 21.2532C25.6318 21.2191 25.5867 21.1849 25.5416 21.1465C25.4294 21.058 25.3234 20.9653 25.2269 20.8693C25.1881 20.832 25.1492 20.7947 25.1125 20.7563H25.1073L25.0485 20.6966L24.9898 20.6358C24.8954 20.5366 24.802 20.4353 24.7097 20.3329L24.6478 20.2658L24.5376 20.1453C24.4401 20.0386 24.3404 19.932 24.2365 19.8254C24.1757 19.7656 24.1127 19.7049 24.0487 19.6462C23.9617 19.5662 23.8704 19.4873 23.7728 19.4116C23.7351 19.3818 23.6962 19.3519 23.6564 19.3242C23.5966 19.2783 23.5336 19.2346 23.4686 19.193C23.4245 19.1639 23.3794 19.1361 23.3332 19.1098C22.8955 18.8541 22.4179 18.6763 21.9212 18.5841C21.8393 18.5671 21.7543 18.5521 21.6683 18.5383C21.5823 18.5244 21.491 18.5127 21.3987 18.502C21.3378 18.4946 21.277 18.4882 21.2141 18.4828C19.8755 18.3486 18.5375 18.7439 17.4782 19.5865L17.3628 19.6771C17.2799 19.7454 17.1991 19.8147 17.1204 19.8904C17.0418 19.9661 16.9935 20.0098 16.9316 20.0706C16.497 20.5056 16.1351 21.0099 15.8605 21.5635C15.8217 21.6424 15.7839 21.7213 15.7482 21.8013C15.7136 21.8823 15.68 21.9634 15.6486 22.0455C15.6171 22.1276 15.5877 22.2108 15.5604 22.2939C15.3823 22.8393 15.2972 23.4117 15.3086 23.9862C15.2994 24.5599 15.3845 25.1312 15.5604 25.6763C15.5877 25.7606 15.6171 25.8438 15.6475 25.9269C15.7885 26.3013 15.9693 26.6589 16.1867 26.9933C16.235 27.0669 16.2843 27.1383 16.3347 27.2065C16.5148 27.456 16.7144 27.6903 16.9316 27.9071C17.0239 27.9999 17.1204 28.0895 17.2191 28.1748C17.3513 28.2899 17.4887 28.3976 17.6303 28.4947C17.7352 28.5715 17.8454 28.644 17.9566 28.7079C18.0174 28.7463 18.0793 28.7819 18.1423 28.8146C18.3456 28.9298 18.5559 29.032 18.7717 29.1206C18.8525 29.1526 18.9343 29.1835 19.0162 29.2123C19.7702 29.4784 20.5747 29.5624 21.3662 29.4576C21.4711 29.4459 21.576 29.432 21.6809 29.4149C21.7512 29.4032 21.8204 29.3915 21.8907 29.3776C22.0428 29.3478 22.1876 29.3115 22.324 29.271C22.4016 29.2475 22.4772 29.2241 22.5496 29.1985C22.666 29.1579 22.7762 29.1142 22.8821 29.0673C22.9514 29.0374 23.0185 29.0055 23.0825 28.9724C23.1476 28.9404 23.2105 28.9063 23.2713 28.8711C23.4789 28.7569 23.6771 28.626 23.8641 28.4798L23.9407 28.419C23.9816 28.3848 24.0215 28.3518 24.0603 28.3177L24.1809 28.211C24.3089 28.0927 24.4296 27.9743 24.5439 27.8581C24.6876 27.7109 24.8219 27.567 24.9531 27.4315C24.9719 27.4123 24.9898 27.3932 25.0087 27.375C25.0832 27.2993 25.1576 27.2268 25.2311 27.1618C25.2678 27.1276 25.3045 27.0946 25.3423 27.0626C25.4495 26.9697 25.5642 26.8862 25.6853 26.8131C25.7336 26.7853 25.7829 26.7598 25.8333 26.7352C25.884 26.7113 25.9363 26.6907 25.9896 26.6734C26.1253 26.6285 26.2666 26.6038 26.4092 26.5998V39.2892C26.7799 39.2275 27.1327 39.0837 27.4426 38.868C28.1423 38.4106 28.7603 37.7153 29.8681 37.3485C31.9296 36.7492 34.2691 37.4274 35.8396 38.9384C36.8279 39.8711 37.4549 41.1327 37.6074 42.4946C37.685 43.0581 37.6769 43.6303 37.5832 44.1912Z" fill="#D68F02"/>
<path d="M51.7851 27.5649V54.7342C51.784 55.2064 51.5986 55.6588 51.2697 55.9924C50.9408 56.326 50.495 56.5135 50.0303 56.5138H26.3181V47.1179C26.5059 47.1022 26.6948 47.1303 26.8703 47.2C27.0458 47.2696 27.2033 47.379 27.3309 47.5199C27.9404 48.1637 28.6914 48.6515 29.5224 48.9434L29.5518 48.954C30.2001 49.1878 30.8831 49.3068 31.5711 49.3059C32.4362 49.3216 33.293 49.1317 34.0731 48.7514C34.8263 48.4124 35.4959 47.9076 36.0337 47.2736C36.8403 46.439 37.3544 45.3581 37.4967 44.1975C37.5914 43.6368 37.6006 43.0646 37.524 42.501C37.3713 41.1355 36.7411 39.871 35.7482 38.9376C34.1739 37.4267 31.8366 36.7486 29.7743 37.3478C28.6659 37.7146 28.0478 38.4141 27.3477 38.8672C27.0377 39.083 26.6848 39.2267 26.3139 39.2884V26.6C26.1711 26.6024 26.0295 26.6273 25.8941 26.6735C25.8408 26.6908 25.7885 26.7115 25.7377 26.7354C25.6874 26.7599 25.638 26.7855 25.5898 26.8132C25.4686 26.8864 25.3538 26.9698 25.2466 27.0627C25.2098 27.0936 25.172 27.1267 25.1353 27.1619C25.0618 27.2301 24.9873 27.3026 24.9128 27.3751C24.8939 27.3933 24.8761 27.4125 24.8572 27.4317C24.726 27.5671 24.5916 27.711 24.4479 27.8582C24.3335 27.9744 24.2128 28.0927 24.0847 28.2111L23.964 28.3177C23.9252 28.3518 23.8853 28.3849 23.8444 28.419L23.7678 28.4798C23.582 28.6289 23.3847 28.7626 23.1779 28.8796C23.1171 28.9137 23.0541 28.9479 22.989 28.9809C22.9239 29.014 22.8568 29.0449 22.7885 29.0758C22.6836 29.1227 22.5723 29.1665 22.4558 29.207C22.3834 29.2326 22.3079 29.256 22.2302 29.2795C22.0938 29.32 21.9489 29.3562 21.7967 29.3861C21.7296 29.4 21.6603 29.4117 21.5868 29.4234C21.4819 29.4405 21.3769 29.4543 21.272 29.4661C20.4802 29.5708 19.6753 29.4869 18.921 29.2208C18.8392 29.192 18.7573 29.1611 18.6765 29.1291C18.4605 29.0405 18.2502 28.9383 18.0468 28.8231C17.9838 28.789 17.9219 28.7535 17.861 28.7165C17.7497 28.6483 17.6406 28.5757 17.5346 28.5032C17.3929 28.3966 17.2554 28.29 17.1232 28.1834C17.0245 28.0981 16.9279 28.0085 16.8356 27.9157C16.6183 27.6989 16.4186 27.4646 16.2384 27.2152C16.188 27.1438 16.1387 27.0723 16.0904 27.002C15.8729 26.6676 15.692 26.31 15.551 25.9357C15.5205 25.8525 15.4911 25.7694 15.4638 25.6851C15.2878 25.14 15.2027 24.5688 15.212 23.9951C15.2005 23.4206 15.2857 22.8483 15.4638 22.303C15.4911 22.2198 15.5205 22.1366 15.552 22.0545C15.5835 21.9724 15.6171 21.8914 15.6517 21.8104C15.6874 21.7304 15.7252 21.6515 15.764 21.5726C16.0388 21.019 16.4008 20.5148 16.8356 20.0798C16.8975 20.019 16.9605 19.9583 17.0245 19.8996C17.0885 19.841 17.184 19.7578 17.2669 19.6864L17.3824 19.5957C18.4421 18.7532 19.7806 18.358 21.1198 18.4922C21.1828 18.4975 21.2436 18.5039 21.3045 18.5114C21.3969 18.522 21.4861 18.5338 21.5742 18.5476C21.6624 18.5615 21.7453 18.5764 21.8272 18.5935C22.3241 18.6856 22.8019 18.8634 23.2399 19.1191C23.286 19.1461 23.3312 19.1739 23.3752 19.2023C23.4403 19.2439 23.5033 19.2876 23.5631 19.3334C23.603 19.3612 23.6418 19.391 23.6796 19.4209C23.7772 19.4966 23.8685 19.5755 23.9556 19.6555C24.0197 19.7141 24.0826 19.7749 24.1435 19.8346C24.2485 19.9412 24.3471 20.0478 24.4447 20.1545L24.5549 20.2749L24.6168 20.3421C24.7092 20.4487 24.8026 20.5458 24.8971 20.6449L24.9558 20.7057L25.0146 20.7654H25.0199C25.0566 20.8038 25.0954 20.8411 25.1343 20.8784C25.2392 20.9744 25.3442 21.0672 25.4491 21.1557C25.4943 21.1919 25.5404 21.226 25.5866 21.2623L25.6632 21.3156C25.723 21.3561 25.785 21.3956 25.849 21.4318C25.913 21.4681 25.9802 21.5043 26.0495 21.5385C26.1187 21.5726 26.2205 21.6184 26.3129 21.6536V0.00223087C26.3339 -0.00629917 26.3759 0.00969466 26.4378 0.0491461C28.4329 1.29986 50.8174 26.1468 51.3075 26.3387C51.6113 26.6729 51.7816 27.1101 51.7851 27.5649Z" fill="#000130"/>
<path d="M5.06968 77.4383V79.9973H0V77.434H1.07642V64.5339H0V62.9369L1.07642 62.0156H3.99219V77.4383H5.06968Z" fill="#000130"/>
<path d="M16.294 63.6566V78.3381L14.3442 79.9973H8.82661L6.87891 78.3381V63.6566L8.82661 62.0156H14.3432L16.294 63.6566ZM12.8816 64.4213H10.2903L9.76189 64.8932V77.0565L10.2903 77.5284H12.8816L13.41 77.0565V64.8932L12.8816 64.4213Z" fill="#000130"/>
<path d="M26.0721 68.3314V80.0001H24.0414L23.5451 79.2951L22.6643 80.0001H19.9111L18.1055 78.5018V73.507L19.9111 72.0087H22.5512L23.4126 72.6696V69.256L22.9604 68.882H21.2193L20.7682 69.256V71.0421H18.1055V68.3314L20.0037 66.7891H24.1792L26.0721 68.3314ZM23.0024 77.8672L23.4094 77.5373V74.3433L23.0024 73.9913H21.172L20.766 74.3433V77.5373L21.1967 77.8672H23.0024Z" fill="#000130"/>
<path d="M36.2127 67.9388V79.9998H33.5361V68.9533L33.1316 68.6155H31.3326L30.9281 68.9533V79.9998H28.2461V66.4445H30.293L30.765 67.1663L31.664 66.4219H34.4083L36.2127 67.9388Z" fill="#000130"/>
<path d="M42.1479 77.8066H43.4541V79.9983H40.9499L39.1834 78.4745V68.7501H37.6602V66.5616H39.1855V63.8516H41.7552V66.5616H43.4541V68.7576H41.7552V77.4711L42.1479 77.8066Z" fill="#000130"/>
<path d="M52.869 68.3309V71.0618H50.2055V69.2552L49.7545 68.8813H48.0169L47.5658 69.2552V70.8843L52.869 74.1655V78.5023L51.0388 80.0001H46.7325L44.9023 78.5023V75.4637H47.5658V77.5118L47.9717 77.8416H49.8018L50.2077 77.5118V75.5519L44.9045 72.2718V68.3309L46.8003 66.7891H50.9753L52.869 68.3309Z" fill="#000130"/>
</g>
<defs>
<clipPath id="clip0_9974_24848">
<rect width="52.8696" height="80" fill="white"/>
</clipPath>
</defs>
</svg>
